HIERARCHY
ROOT root
{
	OFFSET 0.000000 0.000000 0.000000
	CHANNELS 6 Xposition Yposition Zposition Zrotation Yrotation Xrotation
	JOINT lhip
	{
		OFFSET 0.058581 -0.082280 -0.017664
		CHANNELS 3 Zrotation Yrotation Xrotation
		JOINT lknee
		{
			OFFSET 0.043451 -0.386469 0.008037
			CHANNELS 3 Zrotation Yrotation Xrotation
			JOINT lankle
			{
				OFFSET -0.014790 -0.426874 -0.037428
				CHANNELS 3 Zrotation Yrotation Xrotation
				JOINT ltoe
				{
					OFFSET 0.041054 -0.060286 0.122042
					CHANNELS 3 Zrotation Yrotation Xrotation
					End Site
					{
						OFFSET 0.000000 0.000000 0.000000
					}
				}
			}
		}
	}
	JOINT rhip
	{
		OFFSET -0.060310 -0.090513 -0.013543
		CHANNELS 3 Zrotation Yrotation Xrotation
		JOINT rknee
		{
			OFFSET -0.043257 -0.383688 -0.004843
			CHANNELS 3 Zrotation Yrotation Xrotation
			JOINT rankle
			{
				OFFSET 0.019056 -0.420046 -0.034562
				CHANNELS 3 Zrotation Yrotation Xrotation
				JOINT rtoe
				{
					OFFSET -0.034840 -0.062106 0.130323
					CHANNELS 3 Zrotation Yrotation Xrotation
					End Site
					{
						OFFSET 0.000000 0.000000 0.000000
					}
				}
			}
		}
	}
	JOINT lowerback
	{
		OFFSET 0.004439 0.124404 -0.038385
		CHANNELS 3 Zrotation Yrotation Xrotation
		JOINT upperback
		{
			OFFSET 0.004488 0.137956 0.026820
			CHANNELS 3 Zrotation Yrotation Xrotation
			JOINT chest
			{
				OFFSET -0.002265 0.056032 0.002855
				CHANNELS 3 Zrotation Yrotation Xrotation
				JOINT lowerneck
				{
					OFFSET -0.013390 0.211636 -0.033468
					CHANNELS 3 Zrotation Yrotation Xrotation
					JOINT upperneck
					{
						OFFSET 0.010113 0.088937 0.050410
						CHANNELS 3 Zrotation Yrotation Xrotation
						End Site
						{
							OFFSET 0.000000 0.000000 0.000000
						}
					}
				}
				JOINT lclavicle
				{
					OFFSET 0.071702 0.114000 -0.018898
					CHANNELS 3 Zrotation Yrotation Xrotation
					JOINT lshoulder
					{
						OFFSET 0.122921 0.045205 -0.019046
						CHANNELS 3 Zrotation Yrotation Xrotation
						JOINT lelbow
						{
							OFFSET 0.255332 -0.015649 -0.022946
							CHANNELS 3 Zrotation Yrotation Xrotation
							JOINT lwrist
							{
								OFFSET 0.265709 0.012698 -0.007375
								CHANNELS 3 Zrotation Yrotation Xrotation
								End Site
								{
									OFFSET 0.000000 0.000000 0.000000
								}
							}
						}
					}
				}
				JOINT rclavicle
				{
					OFFSET -0.082954 0.112472 -0.023707
					CHANNELS 3 Zrotation Yrotation Xrotation
					JOINT rshoulder
					{
						OFFSET -0.113228 0.046853 -0.008472
						CHANNELS 3 Zrotation Yrotation Xrotation
						JOINT relbow
						{
							OFFSET -0.260127 -0.014369 -0.031269
							CHANNELS 3 Zrotation Yrotation Xrotation
							JOINT rwrist
							{
								OFFSET -0.269108 0.006794 -0.006027
								CHANNELS 3 Zrotation Yrotation Xrotation
								End Site
								{
									OFFSET 0.000000 0.000000 0.000000
								}
							}
						}
					}
				}
			}
		}
	}
}
MOTION
Frames: 10
Frame Time: 0.033333
0.083348 0.572167 0.886098 -9.161067 0.789328 91.877330 13.085164 8.544443 -30.427885 -7.953996 6.288702 50.411006 1.053458 5.772393 -26.426293 0.000000 -0.000000 0.000000 -15.524877 -8.099477 -30.054253 -0.558611 -2.379704 45.823243 4.435696 -2.779065 -14.298800 0.000000 -0.000000 0.000000 -1.962280 2.779270 34.968773 3.488888 -2.371666 -1.880808 1.593580 -2.166053 -2.151749 1.591448 -12.583934 -18.359973 -4.639037 -24.951831 3.742525 -31.412501 -7.580602 3.151885 -39.329417 -13.500549 12.324305 8.541572 -59.927182 -1.134797 8.601952 -16.107761 -18.643657 31.417348 17.298857 3.431594 40.349195 18.590652 11.291719 -21.758873 40.699436 -37.900994 -7.234039 13.464167 -30.770298 
0.084015 0.571967 0.885864 -9.530429 0.099059 91.114014 12.202884 8.682021 -29.528130 -7.638323 6.210275 50.487677 1.122575 5.729003 -26.708808 0.000000 -0.000000 0.000000 -16.332281 -8.149548 -29.563175 -0.746332 -2.244215 46.175130 5.337034 -2.282604 -16.217988 0.000000 -0.000000 0.000000 -1.224401 3.214318 33.796027 2.583333 -1.834438 0.346344 0.426632 -2.273924 -1.696375 1.073807 -14.051216 -16.656244 -0.607393 -25.994412 0.302692 -31.137128 -10.570738 5.811312 -37.552086 -14.397975 11.722575 8.965821 -60.116451 -1.069328 8.945313 -15.895654 -18.502495 32.296212 18.059050 4.256467 40.252926 17.937872 9.448091 -23.470232 41.153094 -38.766770 -8.678017 13.554696 -31.426930 
0.084731 0.570852 0.885785 -9.781101 0.175028 91.037482 12.137104 8.896174 -29.382469 -7.375337 6.263986 50.639530 1.057298 5.512593 -27.057150 0.000000 -0.000000 0.000000 -16.258013 -8.069839 -29.602818 -0.772341 -2.130282 46.311263 6.756988 -1.965304 -18.462950 0.000000 -0.000000 0.000000 -1.094562 3.054656 33.804930 2.447011 -1.839566 0.391910 0.347283 -1.752897 -1.977878 0.656527 -14.531864 -15.904783 0.839227 -26.500741 -0.507317 -31.108020 -11.285951 6.585283 -38.235678 -14.400561 11.588642 9.472482 -60.312899 -0.789946 8.249471 -16.063906 -17.729225 31.864163 18.556962 4.422094 40.953528 16.875317 8.709119 -23.729724 41.658665 -38.716545 -8.808854 13.915968 -32.250386 
0.085138 0.570091 0.886111 -10.039606 0.211171 90.958035 12.143450 8.905428 -29.173155 -7.240087 6.454430 50.710978 1.093564 5.494466 -27.462138 0.000000 -0.000000 0.000000 -16.226148 -7.937045 -29.619937 -0.627070 -1.951268 46.375589 7.487030 -1.971215 -19.930114 0.000000 -0.000000 0.000000 -1.101201 2.925720 33.779092 2.327831 -1.894200 0.273218 0.351541 -1.732289 -1.787205 1.026636 -14.978397 -16.286861 1.038186 -26.760098 -0.338617 -31.199342 -11.420857 6.725298 -39.362072 -14.785428 11.477619 11.391874 -60.188534 -3.061252 8.968560 -15.781602 -18.794575 31.652203 18.761725 4.578685 41.456550 16.714683 8.672623 -23.688502 41.696719 -38.817748 -9.642816 13.808593 -32.691831 
0.085134 0.569856 0.886172 -10.077872 0.238248 91.018810 12.184043 8.868403 -29.210228 -7.249435 6.500511 50.713332 1.153846 5.507167 -27.467045 0.000000 -0.000000 0.000000 -16.194250 -7.925619 -29.667511 -0.670988 -2.005299 46.343705 7.473301 -1.876578 -19.907221 0.000000 -0.000000 0.000000 -1.089440 2.841807 33.939049 2.289124 -1.895219 -0.029234 0.358417 -1.746934 -1.848799 1.127850 -15.030326 -16.500076 0.964951 -26.778004 0.001847 -31.181318 -11.171267 6.641518 -40.048446 -14.940778 11.488051 12.236813 -60.114723 -4.573227 9.703106 -15.579734 -19.895085 31.558393 18.564814 4.575421 41.776960 16.653703 8.922416 -23.866188 41.790150 -39.014944 -9.974122 13.758600 -32.806829 
0.085006 0.569377 0.886361 -10.131949 0.265838 91.214903 12.268596 8.761882 -29.311328 -7.237112 6.688367 50.638363 1.258351 5.493900 -27.496629 0.000000 -0.000000 0.000000 -16.121371 -7.971897 -29.818307 -0.690552 -1.993538 46.243971 7.424531 -1.771905 -19.886872 0.000000 -0.000000 0.000000 -1.005056 2.731097 34.455775 2.162501 -1.971181 -0.808953 0.450101 -1.831063 -2.231335 1.144068 -15.195529 -16.521410 1.042114 -26.547140 0.234808 -31.105649 -10.366474 6.343452 -41.753108 -15.223357 11.567207 14.150612 -60.200898 -9.054356 12.506599 -14.490186 -24.592232 31.236545 17.802502 4.480393 42.590936 16.579869 9.641539 -23.873320 42.172021 -39.412690 -11.148071 13.510769 -33.405663 
0.084876 0.569428 0.886339 -10.252100 0.135944 91.284931 12.229511 8.564185 -29.302907 -7.184718 6.947740 50.560544 1.319121 5.609968 -27.480453 0.000000 -0.000000 0.000000 -16.157034 -8.090034 -29.987306 -0.706293 -1.811472 46.260317 7.422728 -1.699446 -19.814323 0.000000 -0.000000 0.000000 -1.086402 2.751175 34.330468 2.058934 -1.958497 -0.948661 0.549804 -1.884212 -2.005988 0.963890 -15.674753 -16.679831 1.314367 -26.262701 0.239176 -31.215898 -10.033703 6.205776 -43.066080 -16.018793 11.587053 17.504919 -60.008370 -15.573728 15.488245 -12.653871 -29.494325 31.167068 17.399398 4.222462 42.742825 16.585757 10.097404 -23.742229 42.237444 -40.639380 -11.407024 13.043174 -35.554067 
0.084268 0.568698 0.887163 -10.298256 0.131465 90.834110 11.808534 9.188473 -28.873758 -6.555232 6.264536 50.710489 0.704367 4.888389 -27.809446 0.000000 -0.000000 0.000000 -15.636740 -8.812346 -29.521801 -1.147853 -1.041286 46.145378 7.464180 -1.074658 -19.905357 0.000000 -0.000000 0.000000 -0.873215 2.675754 35.275425 1.428544 -2.142176 -1.572803 1.140021 -1.964517 -2.540032 -0.448034 -17.759636 -15.055321 3.035030 -24.305296 -0.074796 -31.263648 -10.113829 6.968061 -44.389137 -16.140884 10.100563 20.316731 -60.375604 -19.310794 19.355591 -9.807149 -34.059689 30.875593 17.730772 5.895704 42.289637 16.223995 7.559376 -20.633400 43.647892 -39.537280 -14.644975 13.522667 -41.264997 
0.083591 0.568903 0.887414 -10.266782 -0.005963 90.800149 11.836308 8.934480 -28.761112 -6.642015 6.441321 50.526560 0.631305 4.947580 -27.731220 0.000000 -0.000000 0.000000 -15.769564 -8.782967 -29.482126 -1.083924 -1.087476 46.168694 7.519944 -1.143777 -19.930094 0.000000 -0.000000 0.000000 -0.959179 2.677363 35.230690 1.429042 -2.146883 -1.479382 1.251542 -2.079111 -2.553343 -0.717892 -18.216375 -15.047178 3.082754 -23.838578 0.069688 -31.314322 -10.206714 6.906754 -45.309476 -16.734978 10.338468 24.468345 -59.809414 -25.563304 21.515858 -8.590213 -35.856067 30.810452 17.706367 5.546727 42.367077 15.939077 7.706616 -20.698847 43.469194 -41.975391 -12.085410 13.134708 -44.231355 
0.082664 0.569104 0.887206 -10.284395 -0.040351 90.758398 11.753757 9.097559 -28.767852 -6.319475 6.359612 50.605265 0.461760 4.591806 -27.776157 0.000000 -0.000000 0.000000 -15.727775 -8.716011 -29.499756 -1.328871 -1.234963 46.294313 7.435997 -0.850316 -20.010970 0.000000 -0.000000 0.000000 -0.953862 2.721091 34.972087 1.438264 -2.170887 -1.127598 1.375727 -2.112154 -2.735275 -0.872784 -18.298109 -14.711441 3.121207 -23.753143 -0.181188 -31.396914 -10.503731 7.107064 -45.536821 -17.167808 10.039423 26.967624 -59.387204 -29.344210 21.906718 -9.166161 -36.054635 30.647058 17.848331 5.637447 42.375213 15.760075 7.505045 -20.573754 43.734965 -43.470292 -11.953868 12.858853 -47.152840 
